<svg width="345" height="109" viewBox="0 0 345 109" fill="none" xmlns="http://www.w3.org/2000/svg">
<path fill-rule="evenodd" clip-rule="evenodd" d="M67.0845 48.2326L13.3285 48.4091C9.8241 48.2957 6.49307 46.6707 4.0301 43.8731C1.56713 41.0755 0.162374 37.3212 0.108795 33.3932C0.0840701 25.8636 4.90134 19.5229 11.3491 18.5982L11.3481 18.297C11.3312 14.4116 12.4336 10.6247 14.4915 7.49934C16.5494 4.37394 19.4529 2.07683 22.7704 0.949458C26.0879 -0.177909 29.6422 -0.0753511 32.9052 1.24189C36.1681 2.55914 38.9654 5.02076 40.8813 8.26082C42.6986 6.84759 44.8257 6.01642 47.0339 5.85666C49.242 5.6969 51.4478 6.2146 53.4139 7.35409C55.3801 8.49358 57.0323 10.2118 58.1929 12.3239C59.3535 14.4361 59.9787 16.8624 60.0013 19.3419L60.0032 19.9443C62.0434 18.609 64.353 17.876 66.7158 17.814C70.2801 17.8022 73.7035 19.3776 76.2331 22.1935C78.7627 25.0094 80.1911 28.8351 80.2043 32.829C80.2174 36.823 78.8141 40.658 76.303 43.4904C73.792 46.3228 70.379 47.9206 66.8147 47.9323L67.0845 48.2326Z" fill="white"/>
<path fill-rule="evenodd" clip-rule="evenodd" d="M231.682 81.1296C225.667 81.1296 219.897 78.7399 215.643 74.4861C211.39 70.2324 209 64.4631 209 58.4473C209 52.4316 211.39 46.6623 215.643 42.4086C219.897 38.1548 225.667 35.7651 231.682 35.7651C235.67 35.8468 239.573 36.9395 243.023 38.9406V38.0333C243.048 34.2985 244.089 30.641 246.037 27.4539C247.984 24.2668 250.763 21.6707 254.075 19.9447C257.387 18.2187 261.107 17.428 264.835 17.6577C268.562 17.8874 272.157 19.1288 275.232 21.2484C278.448 16.3588 283.155 12.6373 288.655 10.6371C294.155 8.63699 300.153 8.46493 305.759 10.1465C311.364 11.8282 316.277 15.2737 319.768 19.971C323.259 24.6683 325.14 30.3665 325.133 36.2187V36.6724C336.021 38.0333 344.186 47.5599 344.186 58.901C344.118 64.8175 341.768 70.4792 337.626 74.7051C333.485 78.9311 327.872 81.3951 321.958 81.5833H231.229L231.682 81.1296Z" fill="white"/>
<path fill-rule="evenodd" clip-rule="evenodd" d="M95.6107 108.662C91.2053 108.662 86.9803 106.885 83.8652 103.72C80.7501 100.555 79 96.263 79 91.7875C79 87.312 80.7501 83.0198 83.8652 79.8551C86.9803 76.6904 91.2053 74.9125 95.6107 74.9125C98.5314 74.9733 101.389 75.7862 103.916 77.275V76.6C103.934 73.8214 104.697 71.1003 106.123 68.7292C107.549 66.3581 109.584 64.4267 112.009 63.1426C114.435 61.8584 117.159 61.2702 119.889 61.4411C122.619 61.612 125.251 62.5356 127.503 64.1125C129.858 60.4747 133.306 57.7061 137.333 56.218C141.361 54.7299 145.754 54.6019 149.859 55.853C153.964 57.1041 157.562 59.6675 160.118 63.1621C162.674 66.6568 164.052 70.8961 164.047 75.25V75.5875C172.02 76.6 178 83.6875 178 92.125C177.95 96.5268 176.229 100.739 173.196 103.883C170.163 107.027 166.052 108.86 161.721 109H95.2785L95.6107 108.662Z" fill="white"/>
</svg>
