<svg width="375" height="211" viewBox="0 0 375 211" fill="none" xmlns="http://www.w3.org/2000/svg">
<path d="M0 95C6.87642 97.0785 1.5 97.5 24.5 103C47.5 108.5 44 105 56.5 100C69 95 109 82 109 82C109 82 118 79.5 135.5 77.5C153 75.5 149.5 82 161.5 87.5C173.5 93 203.5 97 213 100C222.5 103 248 92 264.5 100C281 108 326 108.5 326 108.5C326 108.5 341.5 108.5 350.5 101.75C359.5 95 375 95 375 95V211H0V95Z" fill="#7FAA78"/>
<path d="M287.868 121.871C278.95 121.936 272.27 117.724 266.726 111.86C265.657 110.693 264.622 109.138 263.686 107.388C258.91 98.6404 257.641 88.4992 259.812 78.8116C263.386 62.9356 271.201 34.4884 284.795 13.6876C286.231 11.4844 289.538 11.4844 290.974 13.6876C304.535 34.4884 312.35 62.9356 315.957 78.8116C318.128 88.4668 316.826 98.6404 312.083 107.388C311.148 109.106 310.112 110.661 309.044 111.86C303.466 117.724 296.786 121.936 287.868 121.871Z" fill="#63C072"/>
<path opacity="0.4" d="M315.557 78.8116C311.983 62.9356 304.167 34.4884 290.573 13.6876C289.505 12.0676 287.4 11.6464 285.797 12.4564C287.066 13.4608 288.135 14.7568 288.937 16.3444C299.324 36.886 305.637 60.4084 308.843 74.632C311.215 85.0972 309.812 96.0484 304.702 105.542C303.633 107.518 302.497 109.3 301.261 110.661C296.051 116.169 289.905 120.381 282.09 121.385C283.793 121.742 285.563 121.904 287.467 121.904C296.385 121.968 303.065 117.756 308.609 111.892C309.678 110.726 310.714 109.17 311.649 107.421C316.458 98.6404 317.761 88.4992 315.557 78.8116Z" fill="#50A85F"/>
<path d="M287.868 121.871C278.95 121.936 272.27 117.724 266.726 111.86C265.657 110.693 264.622 109.138 263.686 107.388C258.91 98.6404 257.641 88.4992 259.812 78.8116C263.386 62.9356 271.201 34.4884 284.795 13.6876C286.231 11.4844 289.538 11.4844 290.974 13.6876C304.535 34.4884 312.35 62.9356 315.957 78.8116C318.128 88.4668 316.826 98.6404 312.083 107.388C311.148 109.106 310.112 110.661 309.044 111.86C303.466 117.724 296.786 121.936 287.868 121.871Z" stroke="#00233A" stroke-width="3" stroke-miterlimit="10" stroke-linecap="round" stroke-linejoin="round"/>
<path d="M287.868 103.468L301.896 93.6508" stroke="#00233A" stroke-width="3" stroke-miterlimit="10" stroke-linecap="round" stroke-linejoin="round"/>
<path d="M287.868 89.86L275.343 80.464" stroke="#00233A" stroke-width="3" stroke-miterlimit="10" stroke-linecap="round" stroke-linejoin="round"/>
<path d="M256.773 130.943H235.43C229.151 130.943 224.041 125.986 224.041 119.895V81.0148C224.041 74.9236 229.151 69.9664 235.43 69.9664H256.739C263.018 69.9664 268.129 74.9236 268.129 81.0148V119.895C268.162 125.986 263.052 130.943 256.773 130.943Z" fill="#50A85F"/>
<path opacity="0.74" d="M256.439 69.9664H251.429C257.708 69.9664 262.818 74.9236 262.818 81.0148V119.895C262.818 125.986 257.708 130.943 251.429 130.943H256.439C262.718 130.943 267.828 125.986 267.828 119.895V81.0148C267.828 74.8912 262.718 69.9664 256.439 69.9664Z" fill="#63B370"/>
<path d="M256.773 130.943H235.43C229.151 130.943 224.041 125.986 224.041 119.895V81.0148C224.041 74.9236 229.151 69.9664 235.43 69.9664H256.739C263.018 69.9664 268.129 74.9236 268.129 81.0148V119.895C268.162 125.986 263.052 130.943 256.773 130.943Z" stroke="#00233A" stroke-width="3" stroke-miterlimit="10" stroke-linecap="round" stroke-linejoin="round"/>
<path d="M246.118 121.871L255.47 113.512" stroke="#00233A" stroke-width="3" stroke-miterlimit="10" stroke-linecap="round" stroke-linejoin="round"/>
<path d="M246.118 108.004L235.764 103.468" stroke="#00233A" stroke-width="3" stroke-miterlimit="10" stroke-linecap="round" stroke-linejoin="round"/>
<path d="M287.868 158.224V66.856" stroke="#00233A" stroke-width="3" stroke-miterlimit="10" stroke-linecap="round" stroke-linejoin="round"/>
<path d="M246.118 93.748V158.224" stroke="#00233A" stroke-width="3" stroke-miterlimit="10" stroke-linecap="round" stroke-linejoin="round"/>
<path d="M87.7018 122.195C98.7696 122.195 107.742 98.9855 107.742 70.3552C107.742 41.7246 98.7696 18.5152 87.7018 18.5152C76.634 18.5152 67.6618 41.7246 67.6618 70.3552C67.6618 98.9855 76.634 122.195 87.7018 122.195Z" fill="#63C072"/>
<path opacity="0.53" d="M87.7018 18.5152C87.5348 18.5152 87.3678 18.5152 87.1674 18.5476C96.4192 23.1484 103.4 44.176 103.4 69.448C103.4 97.636 94.7158 120.543 83.8942 121.256C85.13 121.871 86.3992 122.195 87.7018 122.195C98.7572 122.195 107.742 98.9968 107.742 70.3552C107.742 41.7136 98.7572 18.5152 87.7018 18.5152Z" fill="#D89535"/>
<path d="M87.7018 122.195C98.7696 122.195 107.742 98.9854 107.742 70.3552C107.742 41.7246 98.7696 18.5152 87.7018 18.5152C76.634 18.5152 67.6618 41.7246 67.6618 70.3552C67.6618 98.9854 76.634 122.195 87.7018 122.195Z" stroke="#00233A" stroke-width="3" stroke-miterlimit="10" stroke-linecap="round" stroke-linejoin="round"/>
<path d="M87.6016 53.248V154.66" stroke="#00233A" stroke-width="3" stroke-miterlimit="10" stroke-linecap="round" stroke-linejoin="round"/>
<path d="M87.7018 85L95.6176 74.956" stroke="#00233A" stroke-width="3" stroke-miterlimit="10" stroke-linecap="round" stroke-linejoin="round"/>
<path d="M87.7018 104.764L79.1514 96.1132" stroke="#00233A" stroke-width="3" stroke-miterlimit="10" stroke-linecap="round" stroke-linejoin="round"/>
<path d="M87.6016 70.1932L80.6878 62.644" stroke="#00233A" stroke-width="3" stroke-miterlimit="10" stroke-linecap="round" stroke-linejoin="round"/>
<path opacity="0.6" d="M97.7218 64.5556C99.2528 64.5556 100.494 63.3516 100.494 61.8664C100.494 60.3812 99.2528 59.1772 97.7218 59.1772C96.1907 59.1772 94.9496 60.3812 94.9496 61.8664C94.9496 63.3516 96.1907 64.5556 97.7218 64.5556Z" fill="#EF8C3A"/>
<path d="M79.1514 51.0772C80.1291 51.0772 80.9216 50.3083 80.9216 49.36C80.9216 48.4117 80.1291 47.6428 79.1514 47.6428C78.1738 47.6428 77.3812 48.4117 77.3812 49.36C77.3812 50.3083 78.1738 51.0772 79.1514 51.0772Z" fill="#FFD766"/>
<path d="M90.6744 47.1244C91.5044 47.1244 92.1774 46.4715 92.1774 45.6664C92.1774 44.8609 91.5044 44.2084 90.6744 44.2084C89.8444 44.2084 89.1714 44.8609 89.1714 45.6664C89.1714 46.4715 89.8444 47.1244 90.6744 47.1244Z" fill="#FFD766"/>
<path opacity="0.38" d="M236.365 86.5876C238.247 86.5876 239.772 85.1079 239.772 83.2828C239.772 81.4577 238.247 79.978 236.365 79.978C234.484 79.978 232.958 81.4577 232.958 83.2828C232.958 85.1079 234.484 86.5876 236.365 86.5876Z" fill="#FFB845"/>
<path opacity="0.38" d="M247.053 87.5596C248.4 87.5596 249.491 86.5008 249.491 85.1944C249.491 83.8881 248.4 82.8292 247.053 82.8292C245.707 82.8292 244.615 83.8881 244.615 85.1944C244.615 86.5008 245.707 87.5596 247.053 87.5596Z" fill="#FFB845"/>
<path opacity="0.74" d="M236.365 117.011C237.712 117.011 238.803 115.952 238.803 114.646C238.803 113.34 237.712 112.281 236.365 112.281C235.019 112.281 233.927 113.34 233.927 114.646C233.927 115.952 235.019 117.011 236.365 117.011Z" fill="#E8531F"/>
<path opacity="0.74" d="M254.301 97.7008C255.426 97.7008 256.338 96.8159 256.338 95.7244C256.338 94.6328 255.426 93.748 254.301 93.748C253.176 93.748 252.264 94.6328 252.264 95.7244C252.264 96.8159 253.176 97.7008 254.301 97.7008Z" fill="#E8531F"/>
<path opacity="0.6" d="M77.114 82.6672C78.6451 82.6672 79.8862 81.4632 79.8862 79.978C79.8862 78.4928 78.6451 77.2888 77.114 77.2888C75.5829 77.2888 74.3418 78.4928 74.3418 79.978C74.3418 81.4632 75.5829 82.6672 77.114 82.6672Z" fill="#EF8C3A"/>
<path opacity="0.6" d="M83.3598 42.4264C84.8908 42.4264 86.132 41.2224 86.132 39.7372C86.132 38.252 84.8908 37.048 83.3598 37.048C81.8287 37.048 80.5876 38.252 80.5876 39.7372C80.5876 41.2224 81.8287 42.4264 83.3598 42.4264Z" fill="#EF8C3A"/>
<path opacity="0.6" d="M95.7178 96.2104C97.2489 96.2104 98.49 95.0064 98.49 93.5212C98.49 92.036 97.2489 90.832 95.7178 90.832C94.1868 90.832 92.9456 92.036 92.9456 93.5212C92.9456 95.0064 94.1868 96.2104 95.7178 96.2104Z" fill="#EF8C3A"/>
<path d="M105.604 45.634C109.884 45.634 113.353 42.2686 113.353 38.1172C113.353 33.9658 109.884 30.6004 105.604 30.6004C101.325 30.6004 97.8554 33.9658 97.8554 38.1172C97.8554 42.2686 101.325 45.634 105.604 45.634Z" fill="#FF9F48"/>
<path d="M105.604 30.6004C105.537 30.6004 105.504 30.6004 105.437 30.6004C107.675 31.9288 109.178 34.3264 109.178 37.048C109.178 41.1304 105.805 44.4676 101.596 44.5648C102.765 45.2452 104.135 45.634 105.604 45.634C109.879 45.634 113.353 42.2644 113.353 38.1172C113.353 33.97 109.879 30.6004 105.604 30.6004Z" fill="#EF8C3A"/>
<path d="M105.604 45.634C109.884 45.634 113.353 42.2686 113.353 38.1172C113.353 33.9658 109.884 30.6004 105.604 30.6004C101.325 30.6004 97.8554 33.9658 97.8554 38.1172C97.8554 42.2686 101.325 45.634 105.604 45.634Z" stroke="#00233A" stroke-width="3" stroke-miterlimit="10" stroke-linecap="round" stroke-linejoin="round"/>
<path d="M234.929 158.224C234.929 149.735 242.01 142.899 250.727 142.899C259.445 142.899 266.525 149.735 266.525 158.224H234.929Z" fill="#5BB469"/>
<path opacity="0.4" d="M250.727 142.899C249.091 142.899 247.554 143.126 246.051 143.579C252.497 145.491 257.173 151.323 257.173 158.224H266.492C266.525 149.735 259.445 142.899 250.727 142.899Z" fill="#FF7364"/>
<path d="M234.929 158.224C234.929 149.735 242.01 142.899 250.727 142.899C259.445 142.899 266.525 149.735 266.525 158.224H234.929Z" stroke="#00233A" stroke-width="3" stroke-miterlimit="10" stroke-linecap="round" stroke-linejoin="round"/>
<path d="M258.777 158.224C258.777 152.586 263.453 148.083 269.231 148.083C275.009 148.083 279.685 152.619 279.685 158.224H258.777Z" fill="#FFB845"/>
<path opacity="0.53" d="M269.231 148.083C268.396 148.083 267.594 148.18 266.826 148.342C271.435 149.379 274.909 153.396 274.909 158.224H279.718C279.718 152.586 275.009 148.083 269.231 148.083Z" fill="#D89535"/>
<path d="M258.777 158.224C258.777 152.586 263.453 148.083 269.231 148.083C275.009 148.083 279.685 152.619 279.685 158.224H258.777Z" stroke="#00233A" stroke-width="3" stroke-miterlimit="10" stroke-linecap="round" stroke-linejoin="round"/>
<path d="M283.058 158.224C283.058 154.109 286.465 150.837 290.674 150.837C294.882 150.837 298.289 154.142 298.289 158.224H283.058Z" fill="#FFB845"/>
<path d="M283.058 158.224C283.058 154.109 286.465 150.837 290.674 150.837C294.882 150.837 298.289 154.142 298.289 158.224H283.058Z" stroke="#00233A" stroke-width="3" stroke-miterlimit="10" stroke-linecap="round" stroke-linejoin="round"/>
<path d="M98.3898 158.224C98.3898 154.142 101.797 150.837 106.005 150.837C110.213 150.837 113.62 154.142 113.62 158.224H98.3898Z" fill="#FFB845"/>
<path d="M98.3898 158.224C98.3898 154.142 101.797 150.837 106.005 150.837C110.213 150.837 113.62 154.142 113.62 158.224H98.3898Z" stroke="#00233A" stroke-width="3" stroke-miterlimit="10" stroke-linecap="round" stroke-linejoin="round"/>
<path d="M136.867 158.224C136.867 155.6 139.038 153.494 141.743 153.494C144.448 153.494 146.619 155.6 146.619 158.224H136.867Z" fill="#00233A"/>
<path d="M128.316 157.803C128.316 155.632 130.12 153.882 132.358 153.882C134.595 153.882 136.399 155.632 136.399 157.803H128.316Z" fill="#00233A"/>
<path d="M136.867 158.224C136.867 155.6 139.038 153.494 141.743 153.494C144.448 153.494 146.619 155.6 146.619 158.224H136.867Z" stroke="#00233A" stroke-width="3" stroke-miterlimit="10" stroke-linecap="round" stroke-linejoin="round"/>
<path d="M149.191 158.224C149.191 154.142 152.598 150.837 156.806 150.837C161.015 150.837 164.422 154.142 164.422 158.224H149.191Z" fill="#00233A"/>
<path d="M214.087 157.997C214.087 155.178 216.425 152.91 219.331 152.91C222.237 152.91 224.575 155.178 224.575 157.997H214.087Z" fill="#00233A"/>
<path d="M200.393 157.997C200.393 154.304 203.5 151.29 207.307 151.29C211.115 151.29 214.221 154.304 214.221 157.997H200.393Z" fill="#00233A"/>
<path d="M149.191 158.224C149.191 154.142 152.598 150.837 156.806 150.837C161.015 150.837 164.422 154.142 164.422 158.224H149.191Z" stroke="#00233A" stroke-width="3" stroke-miterlimit="10" stroke-linecap="round" stroke-linejoin="round"/>
<path d="M196.252 158.224H311.716" stroke="#00233A" stroke-width="3" stroke-miterlimit="10" stroke-linecap="round" stroke-linejoin="round"/>
<path d="M182.124 158.224H190.474" stroke="#00233A" stroke-width="3" stroke-miterlimit="10" stroke-linecap="round" stroke-linejoin="round"/>
<path d="M56.8736 158.224H177.114" stroke="#00233A" stroke-width="3" stroke-miterlimit="10" stroke-linecap="round" stroke-linejoin="round"/>
<path d="M138.236 142.186H131.556V158.224H138.236V142.186Z" fill="#81440E"/>
<path d="M138.236 142.186H131.556V158.224H138.236V142.186Z" fill="#81440E"/>
<path d="M138.236 142.186H131.556V147.111H138.236V142.186Z" fill="#663717"/>
<path d="M207.307 142.186H200.627V158.224H207.307V142.186Z" fill="#81440E"/>
<path d="M207.307 142.186H200.627V147.111H207.307V142.186Z" fill="#663717"/>
<path d="M138.236 142.186H131.556V158.224H138.236V142.186Z" stroke="#00233A" stroke-width="3" stroke-miterlimit="10" stroke-linecap="round" stroke-linejoin="round"/>
<path d="M207.307 142.186H200.627V158.224H207.307V142.186Z" stroke="#00233A" stroke-width="3" stroke-miterlimit="10" stroke-linecap="round" stroke-linejoin="round"/>
<path d="M140.541 100.52H135.865V134.896H140.541V100.52Z" fill="#81440E"/>
<path d="M140.541 107.421H135.865V129.388H140.541V107.421Z" fill="#663717"/>
<path d="M140.541 100.52H135.865V134.896H140.541V100.52Z" stroke="#00233A" stroke-width="3" stroke-miterlimit="10" stroke-linecap="round" stroke-linejoin="round"/>
<path d="M202.999 100.52H198.323V134.896H202.999V100.52Z" fill="#81440E"/>
<path d="M202.999 105.736H198.323V129.388H202.999V105.736Z" fill="#663717"/>
<path d="M202.999 100.52H198.323V134.896H202.999V100.52Z" stroke="#00233A" stroke-width="3" stroke-miterlimit="10" stroke-linecap="round" stroke-linejoin="round"/>
<path d="M214.121 105.768H120.601V115.488H214.121V105.768Z" fill="#81440E"/>
<path d="M214.121 105.768H120.601V109.073H214.121V105.768Z" fill="#A05720"/>
<path d="M214.121 105.768H120.601V115.488H214.121V105.768Z" stroke="#00233A" stroke-width="3" stroke-miterlimit="10" stroke-linecap="round" stroke-linejoin="round"/>
<path d="M214.121 115.488H120.601V125.208H214.121V115.488Z" fill="#81440E"/>
<path d="M214.121 115.488H120.601V118.631H214.121V115.488Z" fill="#A05720"/>
<path d="M214.121 115.488H120.601V125.208H214.121V115.488Z" stroke="#333333" stroke-width="3" stroke-miterlimit="10" stroke-linecap="round" stroke-linejoin="round"/>
<path d="M225.61 135.706H113.253V142.186H225.61V135.706Z" fill="#81440E"/>
<path d="M225.61 135.706H113.253V142.186H225.61V135.706Z" fill="#81440E"/>
<path d="M225.61 135.706H113.253V138.298H225.61V135.706Z" fill="#A05720"/>
<path d="M225.61 135.706H113.253V142.186H225.61V135.706Z" stroke="#00233A" stroke-width="3" stroke-miterlimit="10" stroke-linecap="round" stroke-linejoin="round"/>
<path d="M138.637 112.702C139.614 112.702 140.407 111.933 140.407 110.985C140.407 110.036 139.614 109.268 138.637 109.268C137.659 109.268 136.867 110.036 136.867 110.985C136.867 111.933 137.659 112.702 138.637 112.702Z" fill="#663717"/>
<path d="M138.637 121.709C139.614 121.709 140.407 120.94 140.407 119.992C140.407 119.044 139.614 118.275 138.637 118.275C137.659 118.275 136.867 119.044 136.867 119.992C136.867 120.94 137.659 121.709 138.637 121.709Z" fill="#663717"/>
<path d="M201.095 112.702C202.072 112.702 202.865 111.933 202.865 110.985C202.865 110.036 202.072 109.268 201.095 109.268C200.117 109.268 199.325 110.036 199.325 110.985C199.325 111.933 200.117 112.702 201.095 112.702Z" fill="#663717"/>
<path d="M201.095 121.709C202.072 121.709 202.865 120.94 202.865 119.992C202.865 119.044 202.072 118.275 201.095 118.275C200.117 118.275 199.325 119.044 199.325 119.992C199.325 120.94 200.117 121.709 201.095 121.709Z" fill="#663717"/>
<path d="M138.203 112.281C138.94 112.281 139.539 111.701 139.539 110.985C139.539 110.269 138.94 109.689 138.203 109.689C137.465 109.689 136.867 110.269 136.867 110.985C136.867 111.701 137.465 112.281 138.203 112.281Z" fill="#00233A"/>
<path d="M138.203 121.288C138.94 121.288 139.539 120.708 139.539 119.992C139.539 119.276 138.94 118.696 138.203 118.696C137.465 118.696 136.867 119.276 136.867 119.992C136.867 120.708 137.465 121.288 138.203 121.288Z" fill="#00233A"/>
<path d="M200.661 112.281C201.398 112.281 201.997 111.701 201.997 110.985C201.997 110.269 201.398 109.689 200.661 109.689C199.923 109.689 199.325 110.269 199.325 110.985C199.325 111.701 199.923 112.281 200.661 112.281Z" fill="#00233A"/>
<path d="M200.661 121.288C201.398 121.288 201.997 120.708 201.997 119.992C201.997 119.276 201.398 118.696 200.661 118.696C199.923 118.696 199.325 119.276 199.325 119.992C199.325 120.708 199.923 121.288 200.661 121.288Z" fill="#00233A"/>
<path d="M219.331 167.652H221.369" stroke="#00233A" stroke-width="3" stroke-miterlimit="10" stroke-linecap="round" stroke-linejoin="round"/>
<path d="M168.196 167.652H212.751" stroke="#00233A" stroke-width="3" stroke-miterlimit="10" stroke-linecap="round" stroke-linejoin="round"/>
<path d="M152.732 167.652H160.38" stroke="#00233A" stroke-width="3" stroke-miterlimit="10" stroke-linecap="round" stroke-linejoin="round"/>
<path d="M225.043 30.6004H228.884" stroke="#ABD8FA" stroke-width="3" stroke-miterlimit="10" stroke-linecap="round" stroke-linejoin="round"/>
<path d="M235.898 30.6004H248.089" stroke="#ABD8FA" stroke-width="3" stroke-miterlimit="10" stroke-linecap="round" stroke-linejoin="round"/>
<path d="M34.529 55.2568H46.052" stroke="#ABD8FA" stroke-width="3" stroke-miterlimit="10" stroke-linecap="round" stroke-linejoin="round"/>
<path d="M51.4962 55.2568H57.575" stroke="#ABD8FA" stroke-width="3" stroke-miterlimit="10" stroke-linecap="round" stroke-linejoin="round"/>
<path d="M333.693 52.3084H335.964" stroke="#ABD8FA" stroke-width="3" stroke-miterlimit="10" stroke-linecap="round" stroke-linejoin="round"/>
<path d="M321.802 52.3084H328.382" stroke="#ABD8FA" stroke-width="3" stroke-miterlimit="10" stroke-linecap="round" stroke-linejoin="round"/>
<path d="M237.968 42.4588H258.209" stroke="#ABD8FA" stroke-width="3" stroke-miterlimit="10" stroke-linecap="round" stroke-linejoin="round"/>
<path d="M153.934 47.9344C153.901 47.6752 153.867 47.3836 153.867 47.092C153.867 44.2084 156.272 41.8432 159.278 41.8432C162.251 41.8432 164.689 44.176 164.689 47.092C164.689 49.9756 162.284 52.3408 159.278 52.3408" stroke="#ABD8FA" stroke-width="3" stroke-miterlimit="10" stroke-linecap="round" stroke-linejoin="round"/>
<path d="M136.165 52.3084H159.278" stroke="#ABD8FA" stroke-width="3" stroke-miterlimit="10" stroke-linecap="round" stroke-linejoin="round"/>
<path d="M311.081 37.8904C311.048 37.6312 311.014 37.3396 311.014 37.048C311.014 34.1644 313.419 31.7992 316.425 31.7992C319.431 31.7992 321.836 34.132 321.836 37.048C321.836 39.964 319.431 42.2968 316.425 42.2968" stroke="#ABD8FA" stroke-width="3" stroke-miterlimit="10" stroke-linecap="round" stroke-linejoin="round"/>
<path d="M296.686 42.2968H316.392" stroke="#ABD8FA" stroke-width="3" stroke-miterlimit="10" stroke-linecap="round" stroke-linejoin="round"/>
<path d="M168.062 66.2404C168.029 66.4996 167.995 66.7912 167.995 67.0828C167.995 69.9664 170.4 72.3316 173.406 72.3316C176.412 72.3316 178.817 69.9988 178.817 67.0828C178.817 64.1668 176.412 61.834 173.406 61.834" stroke="#ABD8FA" stroke-width="3" stroke-miterlimit="10" stroke-linecap="round" stroke-linejoin="round"/>
<path d="M152.798 61.8664H173.373" stroke="#ABD8FA" stroke-width="3" stroke-miterlimit="10" stroke-linecap="round" stroke-linejoin="round"/>
<path d="M145.384 61.8664H147.822" stroke="#ABD8FA" stroke-width="3" stroke-miterlimit="10" stroke-linecap="round" stroke-linejoin="round"/>
<path d="M127.448 61.8664H139.372" stroke="#ABD8FA" stroke-width="3" stroke-miterlimit="10" stroke-linecap="round" stroke-linejoin="round"/>
<path d="M141.008 45.8284H119.599" stroke="#ABD8FA" stroke-width="3" stroke-miterlimit="10" stroke-linecap="round" stroke-linejoin="round"/>
<path d="M51.4962 39.6724H59.579" stroke="#ABD8FA" stroke-width="3" stroke-miterlimit="10" stroke-linecap="round" stroke-linejoin="round"/>
<path d="M316.158 86.0692C320.548 86.0692 324.107 82.617 324.107 78.358C324.107 74.0993 320.548 70.6468 316.158 70.6468C311.768 70.6468 308.209 74.0993 308.209 78.358C308.209 82.617 311.768 86.0692 316.158 86.0692Z" fill="#EF4D3C"/>
<path d="M316.158 86.0692C320.548 86.0692 324.107 82.617 324.107 78.358C324.107 74.0993 320.548 70.6468 316.158 70.6468C311.768 70.6468 308.209 74.0993 308.209 78.358C308.209 82.617 311.768 86.0692 316.158 86.0692Z" stroke="#00233A" stroke-width="3" stroke-miterlimit="10" stroke-linecap="round" stroke-linejoin="round"/>
<path d="M74.3418 158.224C80.6688 158.224 85.798 150.086 85.798 140.048C85.798 130.009 80.6688 121.871 74.3418 121.871C68.0149 121.871 62.8856 130.009 62.8856 140.048C62.8856 150.086 68.0149 158.224 74.3418 158.224Z" fill="#70A668"/>
<path opacity="0.74" d="M74.3418 121.871C74.0746 121.871 73.8074 121.904 73.5736 121.904C78.0492 124.366 81.2556 131.138 81.2556 139.043C81.2556 148.666 76.5462 156.539 70.5676 157.155C71.7366 157.803 73.0392 158.159 74.3418 158.159C80.6544 158.159 85.798 150.027 85.798 139.983C85.798 130.004 80.6544 121.871 74.3418 121.871Z" fill="#E8531F"/>
<path d="M74.3418 158.224C80.6688 158.224 85.798 150.086 85.798 140.048C85.798 130.009 80.6688 121.871 74.3418 121.871C68.0149 121.871 62.8856 130.009 62.8856 140.048C62.8856 150.086 68.0149 158.224 74.3418 158.224Z" stroke="#00233A" stroke-width="3" stroke-miterlimit="10" stroke-linecap="round" stroke-linejoin="round"/>
<path d="M75.5442 158.224C75.5442 152.068 80.6544 147.111 87.0004 147.111C93.3464 147.111 98.4566 152.068 98.4566 158.224H75.5442Z" fill="#FF6550"/>
<path opacity="0.4" d="M86.967 147.111C85.965 147.111 85.0298 147.24 84.0946 147.467C89.0378 148.698 92.6784 153.04 92.6784 158.224H98.4232C98.4232 152.068 93.2796 147.111 86.967 147.111Z" fill="#FF7364"/>
<path d="M75.5442 158.224C75.5442 152.068 80.6544 147.111 87.0004 147.111C93.3464 147.111 98.4566 152.068 98.4566 158.224H75.5442Z" stroke="#00233A" stroke-width="3" stroke-miterlimit="10" stroke-linecap="round" stroke-linejoin="round"/>
<path opacity="0.91" d="M284.261 49.3276C285.718 49.3276 286.899 48.1816 286.899 46.768C286.899 45.3544 285.718 44.2084 284.261 44.2084C282.804 44.2084 281.622 45.3544 281.622 46.768C281.622 48.1816 282.804 49.3276 284.261 49.3276Z" fill="#FF6550"/>
<path opacity="0.91" d="M278.75 61.8664C280.631 61.8664 282.157 60.3867 282.157 58.5616C282.157 56.7365 280.631 55.2568 278.75 55.2568C276.868 55.2568 275.343 56.7365 275.343 58.5616C275.343 60.3867 276.868 61.8664 278.75 61.8664Z" fill="#FF6550"/>
<path opacity="0.91" d="M296.686 88.3048C298.567 88.3048 300.092 86.8251 300.092 85C300.092 83.1749 298.567 81.6952 296.686 81.6952C294.804 81.6952 293.279 83.1749 293.279 85C293.279 86.8251 294.804 88.3048 296.686 88.3048Z" fill="#FF6550"/>
<path opacity="0.4" d="M298.289 70.3876C300.17 70.3876 301.696 68.9079 301.696 67.0828C301.696 65.2577 300.17 63.778 298.289 63.778C296.407 63.778 294.882 65.2577 294.882 67.0828C294.882 68.9079 296.407 70.3876 298.289 70.3876Z" fill="#FF7364"/>
<path opacity="0.38" d="M73.3398 138.395C74.8709 138.395 76.112 137.191 76.112 135.706C76.112 134.221 74.8709 133.017 73.3398 133.017C71.8088 133.017 70.5676 134.221 70.5676 135.706C70.5676 137.191 71.8088 138.395 73.3398 138.395Z" fill="#FFB845"/>
<path opacity="0.6" d="M69.2984 141.927C70.2022 141.927 70.935 141.216 70.935 140.339C70.935 139.462 70.2022 138.752 69.2984 138.752C68.3946 138.752 67.6618 139.462 67.6618 140.339C67.6618 141.216 68.3946 141.927 69.2984 141.927Z" fill="#E8531F"/>
<path opacity="0.38" d="M76.112 146.528C77.1818 146.528 78.0492 145.686 78.0492 144.648C78.0492 143.611 77.1818 142.769 76.112 142.769C75.0422 142.769 74.1748 143.611 74.1748 144.648C74.1748 145.686 75.0422 146.528 76.112 146.528Z" fill="#FFB845"/>
<path d="M81.959 171.06C78.256 166.075 81.814 159 88.0237 159H258.817C263.759 159 268.204 162.009 270.039 166.598C272.302 172.255 270 178.713 264.668 181.663L257.707 185.513C253.072 188.077 247.644 188.804 242.498 187.551L223.335 182.883C216.023 181.102 208.32 183.4 203.179 188.895C199.237 193.109 193.725 195.5 187.956 195.5H179.511C173.577 195.5 167.716 194.19 162.347 191.663L160.2 190.653C150.328 186.007 139.226 184.655 128.528 186.794L115 189.5L86.9983 192.894C80.2435 193.713 76.3925 185.405 81.3829 180.779C84.01 178.344 84.382 174.322 82.246 171.447L81.959 171.06Z" fill="#C4C4C4"/>
<ellipse cx="108.5" cy="173" rx="5.5" ry="5" fill="#B2B2B2"/>
<ellipse cx="207" cy="170.5" rx="3" ry="2.5" fill="#B2B2B2"/>
<ellipse cx="144" cy="174.5" rx="3" ry="2.5" fill="#B2B2B2"/>
<line x1="157" y1="166" x2="175" y2="166" stroke="#B2B2B2" stroke-width="4" stroke-linecap="round"/>
<path d="M178 184.5L178.832 184.134C186.239 180.875 194.699 181.008 202 184.5V184.5" stroke="#B2B2B2" stroke-width="4" stroke-linecap="round"/>
<ellipse cx="255" cy="184.5" rx="3" ry="2.5" fill="#B2B2B2"/>
<ellipse cx="167.5" cy="182" rx="5.5" ry="5" fill="#B2B2B2"/>
</svg>
